<svg width="28" height="28" viewBox="0 0 28 28" fill="none" xmlns="http://www.w3.org/2000/svg">
<circle cx="14" cy="14" r="13.25" stroke="#252525" stroke-width="1.5"/>
<path d="M13.6436 6.72117C13.6765 6.65477 13.7273 6.59887 13.7902 6.55979C13.8532 6.52071 13.9258 6.5 13.9999 6.5C14.074 6.5 14.1466 6.52071 14.2095 6.55979C14.2725 6.59887 14.3233 6.65477 14.3561 6.72117L16.0886 10.2304C16.2028 10.4614 16.3712 10.6612 16.5796 10.8128C16.788 10.9643 17.03 11.063 17.2849 11.1004L21.1594 11.6674C21.2328 11.6781 21.3018 11.709 21.3585 11.7568C21.4152 11.8046 21.4575 11.8673 21.4804 11.9379C21.5033 12.0084 21.5061 12.084 21.4883 12.156C21.4706 12.228 21.433 12.2936 21.3799 12.3454L18.5779 15.0739C18.3931 15.254 18.2548 15.4763 18.175 15.7216C18.0952 15.967 18.0762 16.2281 18.1196 16.4824L18.7811 20.3374C18.7941 20.4108 18.7862 20.4863 18.7583 20.5554C18.7303 20.6245 18.6836 20.6844 18.6233 20.7282C18.563 20.772 18.4916 20.7979 18.4173 20.8031C18.3429 20.8083 18.2687 20.7924 18.2029 20.7574L14.7394 18.9364C14.5112 18.8166 14.2573 18.754 13.9995 18.754C13.7418 18.754 13.4878 18.8166 13.2596 18.9364L9.79688 20.7574C9.73113 20.7922 9.65693 20.8079 9.58272 20.8026C9.50851 20.7973 9.43727 20.7713 9.37711 20.7276C9.31694 20.6838 9.27026 20.6241 9.24238 20.5551C9.21449 20.4861 9.20653 20.4107 9.21938 20.3374L9.88013 16.4832C9.92378 16.2287 9.90487 15.9675 9.82504 15.722C9.7452 15.4764 9.60684 15.254 9.42188 15.0739L6.61988 12.3462C6.56633 12.2944 6.52838 12.2287 6.51036 12.1565C6.49233 12.0842 6.49496 12.0084 6.51794 11.9376C6.54093 11.8667 6.58334 11.8038 6.64034 11.7559C6.69735 11.708 6.76666 11.6771 6.84038 11.6667L10.7141 11.1004C10.9693 11.0633 11.2117 10.9647 11.4203 10.8132C11.629 10.6616 11.7977 10.4616 11.9119 10.2304L13.6436 6.72117Z" stroke="#252525" stroke-width="1.5" stroke-linecap="round" stroke-linejoin="round"/>
</svg>
