<svg width="50" height="50" viewBox="0 0 50 50" fill="none" xmlns="http://www.w3.org/2000/svg">
<g clip-path="url(#clip0_1_455)">
<path d="M25 50C38.8071 50 50 38.8071 50 25C50 11.1929 38.8071 0 25 0C11.1929 0 0 11.1929 0 25C0 38.8071 11.1929 50 25 50Z" fill="#EE6055"/>
<path d="M50.0001 25C50.0001 24.8535 49.9971 24.7077 49.9945 24.5618L38.0728 12.64L34.8358 19.8692L29.0797 14.1131L26.4845 22.4663L17.3854 13.3672L17.2212 14.2013L17.5098 17.7448L13.3583 13.5933L13.1431 14.6036L13.6026 18.8478L10.1695 15.4147L9.79834 16.2352L11.6672 39.7142L21.7416 49.7886C22.8082 49.9275 23.8956 50 25.0001 50C38.8072 50 50.0001 38.8071 50.0001 25Z" fill="#C23227"/>
<path d="M21.5607 26.4941L21.0648 24.6646C21.0648 24.6645 21.0646 24.6645 21.0645 24.6645C20.6096 24.7677 20.1407 24.837 19.6602 24.8684C14.7405 25.189 10.4926 21.4605 10.1722 16.5407C10.1475 16.1608 10.1475 15.7852 10.1697 15.4148C10.1697 15.4146 10.1696 15.4146 10.1694 15.4146L7.91874 15.5612C7.91865 15.5612 7.91855 15.5613 7.91855 15.5614C7.23281 16.904 6.87861 18.4371 6.95703 20.0463C7.20595 25.1506 11.6579 28.9942 16.7441 28.4985C18.5773 28.3199 20.2335 27.5939 21.5608 26.4945C21.5607 26.4943 21.5607 26.4942 21.5607 26.4941Z" fill="#FFA300"/>
<path d="M18.3422 26.6772C19.4267 26.5716 20.4491 26.2742 21.3783 25.8215L21.0648 24.6646L21.0645 24.6645C20.6095 24.7677 20.1406 24.837 19.6602 24.8684C14.7404 25.189 10.4925 21.4605 10.1721 16.5407C10.1474 16.1608 10.1474 15.7852 10.1696 15.4148C10.1696 15.4146 10.1696 15.4146 10.1694 15.4146L8.84191 15.501C8.61174 16.3677 8.5092 17.2833 8.55519 18.225C8.80402 23.3293 13.2561 27.1729 18.3422 26.6772Z" fill="#FDBA12"/>
<path d="M21.0645 24.6646L23.3877 23.4832L23.7937 24.6635L21.3781 25.8214L21.0645 24.6646Z" fill="#FFA300"/>
<path d="M23.7939 24.6636L24.0124 25.3222L21.5607 26.4941L21.3784 25.8215L23.7939 24.6636Z" fill="#FF7F00"/>
<path d="M24.7497 24.6731L24.2538 22.8436C24.2538 22.8435 24.2536 22.8434 24.2535 22.8434C23.7986 22.9466 23.3297 23.016 22.8492 23.0473C17.9295 23.3679 13.6816 19.6395 13.3612 14.7197C13.3364 14.3398 13.3364 13.9641 13.3587 13.5938C13.3587 13.5936 13.3586 13.5935 13.3584 13.5935L11.1077 13.7402C11.1076 13.7402 11.1075 13.7403 11.1075 13.7403C10.4217 15.083 10.0675 16.6161 10.146 18.2252C10.3949 23.3295 14.8469 27.1732 19.9331 26.6775C21.7663 26.4989 23.4225 25.7729 24.7498 24.6735C24.7497 24.6733 24.7497 24.6732 24.7497 24.6731Z" fill="#FFA300"/>
<path d="M21.5311 24.8562C22.6155 24.7505 23.638 24.4532 24.5672 24.0004L24.2536 22.8436C24.2536 22.8435 24.2534 22.8434 24.2533 22.8434C23.7984 22.9466 23.3295 23.016 22.849 23.0473C17.9293 23.3679 13.6814 19.6395 13.361 14.7197C13.3362 14.3398 13.3363 13.9641 13.3585 13.5938C13.3585 13.5936 13.3584 13.5935 13.3582 13.5935L12.0309 13.68C11.8007 14.5467 11.6982 15.4624 11.7442 16.4041C11.9929 21.5083 16.4449 25.3519 21.5311 24.8562Z" fill="#FDBA12"/>
<path d="M24.2534 22.8435L26.5767 21.6621L26.9826 22.8424L24.5671 24.0004L24.2534 22.8435Z" fill="#FFA300"/>
<path d="M26.9829 22.8424L27.2014 23.5011L24.7497 24.6731L24.5674 24.0004L26.9829 22.8424Z" fill="#FF7F00"/>
<path d="M28.7766 24.4468L28.2807 22.6173C28.2807 22.6172 28.2805 22.6171 28.2804 22.6171C27.8254 22.7203 27.3565 22.7896 26.8761 22.821C21.9563 23.1416 17.7084 19.4132 17.388 14.4934C17.3633 14.1135 17.3633 13.7378 17.3855 13.3675C17.3855 13.3673 17.3854 13.3672 17.3852 13.3672L15.1346 13.5139C15.1345 13.5139 15.1344 13.514 15.1344 13.5141C14.4486 14.8566 14.0944 16.3897 14.1728 17.9989C14.4218 23.1032 18.8737 26.9469 23.96 26.4512C25.7932 26.2726 27.4493 25.5466 28.7767 24.4472C28.7766 24.4471 28.7766 24.4469 28.7766 24.4468Z" fill="#FFA300"/>
<path d="M25.5584 24.63C26.6429 24.5243 27.6654 24.227 28.5946 23.7742L28.281 22.6174C28.281 22.6173 28.2808 22.6172 28.2807 22.6172C27.8257 22.7204 27.3569 22.7898 26.8764 22.8211C21.9567 23.1417 17.7087 19.4133 17.3883 14.4935C17.3636 14.1136 17.3636 13.7379 17.3859 13.3676C17.3859 13.3674 17.3858 13.3673 17.3856 13.3673L16.0582 13.4538C15.828 14.3205 15.7255 15.2362 15.7715 16.1779C16.0203 21.2821 20.4723 25.1256 25.5584 24.63Z" fill="#FDBA12"/>
<path d="M28.2808 22.6173L30.6039 21.4359L31.01 22.6162L28.5943 23.7741L28.2808 22.6173Z" fill="#FFA300"/>
<path d="M31.0099 22.6162L31.2282 23.2748L28.7766 24.4468L28.5942 23.7741L31.0099 22.6162Z" fill="#FF7F00"/>
<path d="M34.1875 18.5043L36.0251 12.0524L38.0918 12.641L36.2542 19.0929L34.1875 18.5043Z" fill="#E3A67B"/>
<path d="M38.0727 12.6401L37.001 12.3352L35.1724 18.7878L36.2378 19.0909L38.0727 12.6401Z" fill="#D18A56"/>
<path d="M27.3339 23.2403C27.4097 23.7466 27.4228 24.2589 27.4052 24.7706C27.3516 26.325 28.3434 27.7862 29.864 28.2744C30.8017 28.5754 31.7659 28.4664 32.5713 28.0527C33.019 28.7962 33.7382 29.3785 34.6389 29.6347C36.2618 30.0963 37.9425 29.3498 38.7203 27.93C39.0634 27.3038 39.4563 26.7061 39.9317 26.1733L41.9062 23.9601C44.2291 21.3564 43.1608 17.1708 39.839 16.1034C39.7825 16.0852 39.7256 16.068 39.6682 16.0516C38.3506 15.6768 37.0075 15.8474 35.8781 16.4275C35.167 15.2467 33.988 14.3438 32.5094 14.0275C32.4444 14.0136 32.3794 14.001 32.3144 13.9897C29.0911 13.4295 26.2906 16.2699 26.775 19.5055L27.3339 23.2403Z" fill="#FF583E"/>
<path d="M39.8392 16.1035C39.7827 16.0853 39.7258 16.0681 39.6684 16.0517C38.3508 15.6769 37.0077 15.8475 35.8783 16.4276C35.8701 16.414 35.861 16.401 35.8527 16.3875L32.543 28.0667C32.5524 28.0619 32.5621 28.0577 32.5716 28.0528C33.0193 28.7963 33.7385 29.3786 34.6392 29.6348C36.2621 30.0965 37.9428 29.3499 38.7206 27.9302C39.0638 27.3039 39.4566 26.7063 39.932 26.1734L41.9065 23.9602C44.2294 21.3565 43.1611 17.1709 39.8392 16.1035Z" fill="#F92814"/>
<path d="M25.3452 19.437L27.0284 13.5274L29.0951 14.116L27.4119 20.0257L25.3452 19.437Z" fill="#E3A67B"/>
<path d="M26.335 19.7193L27.3987 20.0218L29.0794 14.1131L28.0488 13.8199L26.335 19.7193Z" fill="#D18A56"/>
<path d="M19.1565 23.798C19.226 24.2617 19.238 24.731 19.2218 25.1997C19.1727 26.6236 20.0812 27.9619 21.474 28.4091C22.3329 28.6849 23.2161 28.585 23.9539 28.2061C24.364 28.887 25.0227 29.4204 25.8477 29.6551C27.3343 30.078 28.8737 29.3941 29.5862 28.0937C29.9005 27.52 30.2604 26.9727 30.6958 26.4846L32.5044 24.4573C34.632 22.0725 33.6536 18.2385 30.6107 17.2608C30.5591 17.2442 30.5069 17.2283 30.4543 17.2134C29.2473 16.8701 28.0172 17.0264 26.9827 17.5577C26.3313 16.4762 25.2513 15.6491 23.8969 15.3595C23.8375 15.3468 23.7779 15.3353 23.7183 15.3249C20.7658 14.8117 18.2008 17.4135 18.6444 20.3773L19.1565 23.798Z" fill="#F92814"/>
<path d="M30.6108 17.2607C30.5592 17.2441 30.507 17.2283 30.4544 17.2133C29.2475 16.8701 28.0173 17.0263 26.9828 17.5577C26.9785 17.5505 26.9737 17.5437 26.9694 17.5366L23.856 28.2534C23.8888 28.2378 23.9217 28.2225 23.9539 28.2059C24.3641 28.8869 25.0228 29.4203 25.8478 29.6549C27.3344 30.0778 28.8737 29.394 29.5862 28.0935C29.9005 27.5199 30.2604 26.9725 30.6958 26.4844L32.5044 24.4572C34.6321 22.0723 33.6537 18.2384 30.6108 17.2607Z" fill="#C10000"/>
<path d="M38.3329 39.7144H11.6671L6.57812 23.0566H43.4219L38.3329 39.7144Z" fill="#F2BB88"/>
<path d="M43.4219 23.0566H24.9604V39.7144H38.3329L43.4219 23.0566Z" fill="#D6995C"/>
<path d="M41.2392 30.2005L42.4664 26.1833H7.5332L8.76045 30.2005H41.2392Z" fill="#D6995C"/>
<path d="M42.4666 26.1833H24.9604V30.2005H41.2394L42.4666 26.1833Z" fill="#B27A49"/>
<path d="M39.05 37.367L40.2773 33.3499H9.72266L10.95 37.367H39.05Z" fill="#D6995C"/>
<path d="M40.2772 33.3499H24.9604V37.367H39.0501L40.2772 33.3499Z" fill="#B27A49"/>
</g>
<defs>
<clipPath id="clip0_1_455">
<rect width="50" height="50" fill="white"/>
</clipPath>
</defs>
</svg>
