<svg width="24" height="24" viewBox="0 0 24 24" fill="none" xmlns="http://www.w3.org/2000/svg">
<path d="M10.2681 21C10.4436 21.304 10.6961 21.5565 11.0001 21.732C11.3041 21.9075 11.649 21.9999 12.0001 21.9999C12.3511 21.9999 12.696 21.9075 13 21.732C13.3041 21.5565 13.5565 21.304 13.7321 21" stroke="#252525" stroke-width="2" stroke-linecap="round" stroke-linejoin="round"/>
<path d="M13.9159 2.31402C13.0134 2.0099 12.0514 1.92498 11.1096 2.0663C10.1677 2.20762 9.27304 2.57112 8.49953 3.12673C7.72601 3.68234 7.09586 4.41411 6.6612 5.26152C6.22654 6.10893 5.99985 7.04764 5.99987 8.00002C5.99987 12.499 4.58887 13.956 3.25987 15.327C3.12944 15.4704 3.04348 15.6485 3.01243 15.8398C2.98138 16.0311 3.00659 16.2273 3.08498 16.4045C3.16338 16.5818 3.29158 16.7324 3.454 16.8381C3.61643 16.9438 3.80607 17.0001 3.99987 17H19.9999C20.1937 17.0001 20.3833 16.9438 20.5457 16.8381C20.7082 16.7324 20.8364 16.5818 20.9148 16.4045C20.9932 16.2273 21.0184 16.0311 20.9873 15.8398C20.9563 15.6485 20.8703 15.4704 20.7399 15.327C20.5341 15.1151 20.3388 14.8932 20.1549 14.662" stroke="#252525" stroke-width="2" stroke-linecap="round" stroke-linejoin="round"/>
<path d="M18 11C19.6569 11 21 9.65685 21 8C21 6.34315 19.6569 5 18 5C16.3431 5 15 6.34315 15 8C15 9.65685 16.3431 11 18 11Z" fill="#EE6055" stroke="#EE6055" stroke-linecap="round" stroke-linejoin="round"/>
</svg>
