<svg width="50" height="50" viewBox="0 0 50 50" fill="none" xmlns="http://www.w3.org/2000/svg">
<path d="M25 50C38.8071 50 50 38.8071 50 25C50 11.1929 38.8071 0 25 0C11.1929 0 0 11.1929 0 25C0 38.8071 11.1929 50 25 50Z" fill="#EE6055"/>
<path d="M49.9998 25.0001C49.9998 22.1032 49.5054 19.3221 48.5992 16.7346L38.2799 6.41541C38.2799 6.41541 31.2664 8.41453 30.1593 11.3608L25.6474 7.01706L23.0141 10.45L19.5705 7.01706L17.3012 10.45L13.5646 7.01706H10.4175L13.7693 18.8239C13.7693 20.7401 12.6214 23.6124 12.6214 23.6124L15.835 26.8408L16.1145 44.1264L21.7826 49.7946C22.8359 49.9299 23.9097 50.0001 24.9998 50.0001C38.8069 50.0001 49.9998 38.8072 49.9998 25.0001Z" fill="#C23227"/>
<path d="M14.7979 24.1556H21.2677V32.6517H14.7979V24.1556Z" fill="#FFE780"/>
<path d="M18.0332 24.1553H21.2676V32.6514H18.0332V24.1553Z" fill="#FBBE2C"/>
<path d="M18.0328 44.7565C16.2462 44.7565 14.7979 43.3082 14.7979 41.5216V29.8197H21.2677V41.5217C21.2678 43.3083 19.8194 44.7565 18.0328 44.7565Z" fill="#605553"/>
<path d="M31.8105 24.1556H38.2804V32.6517H31.8105V24.1556Z" fill="#FFE780"/>
<path d="M35.0449 24.1553H38.2803V32.6514H35.0449V24.1553Z" fill="#FBBE2C"/>
<path d="M35.0455 44.7565C33.2589 44.7565 31.8105 43.3082 31.8105 41.5216V29.8197H38.2804V41.5217C38.2804 43.3083 36.8321 44.7565 35.0455 44.7565Z" fill="#605553"/>
<path d="M38.2803 29.8193V41.5215C38.2803 43.3086 36.832 44.7568 35.0449 44.7568V29.8193H38.2803Z" fill="#4C403F"/>
<path d="M38.2803 24.6439H32.8588C30.8775 24.6439 29.2715 23.0378 29.2715 21.0566V14.1937C29.2715 9.89783 32.754 6.41541 37.0498 6.41541H38.2803V24.6439Z" fill="#EEF9FF"/>
<path d="M22.5007 7.01697V15.2201C22.5007 16.0291 21.8448 16.6849 21.0358 16.6849C20.2269 16.6849 19.571 16.0291 19.571 15.2201V7.01697H16.4948V15.2201C16.4948 16.0291 15.839 16.6849 15.03 16.6849C14.221 16.6849 13.5651 16.0291 13.5651 15.2201V7.01697H10.418V18.8238C10.418 22.3078 13.2423 25.1322 16.7264 25.1322H19.3395C22.8234 25.1322 25.6479 22.3079 25.6479 18.8238V7.01697H22.5007Z" fill="#EEF9FF"/>
<path d="M25.6475 7.0166V18.8242C25.6475 21.6348 23.8086 24.0166 21.2676 24.8311C20.6602 25.0264 20.0117 25.1318 19.3389 25.1318H18.0332V7.0166H19.5713V15.2197C19.5713 16.0293 20.2266 16.6846 21.0352 16.6846H21.0361C21.8447 16.6846 22.501 16.0293 22.501 15.2197V7.0166H25.6475Z" fill="#D2EBFF"/>
<path d="M21.2676 29.8193V41.5215C21.2676 43.3086 19.8193 44.7568 18.0332 44.7568V29.8193H21.2676Z" fill="#4C403F"/>
<path d="M38.2803 6.41504V24.6436H35.0449V6.67676C35.6846 6.50586 36.3564 6.41504 37.0498 6.41504H38.2803Z" fill="#D2EBFF"/>
</svg>
