<svg width="50" height="50" viewBox="0 0 50 50" fill="none" xmlns="http://www.w3.org/2000/svg">
<g clip-path="url(#clip0_1_504)">
<path d="M25 50C38.8071 50 50 38.8071 50 25C50 11.1929 38.8071 0 25 0C11.1929 0 0 11.1929 0 25C0 38.8071 11.1929 50 25 50Z" fill="#EE6055"/>
<path d="M49.9998 25C49.9998 24.1866 49.9609 23.3823 49.885 22.5887L36.4146 9.11841L35.0494 11.1764L28.069 4.19604L13.2427 44.0473L18.2825 49.0872C20.42 49.682 22.6728 50 24.9998 50C38.8069 50 49.9998 38.8071 49.9998 25Z" fill="#C23227"/>
<path d="M25.2605 15.0239C25.6061 14.5022 25.8267 13.8857 25.8267 13.2125C25.8267 11.4857 24.4514 10.0809 22.7364 10.0316C22.7713 9.82007 22.7903 9.60327 22.7903 9.38188C22.7903 7.19253 21.0155 5.41772 18.8262 5.41772C16.6368 5.41772 14.862 7.19253 14.862 9.38188C14.862 9.60327 14.8811 9.82007 14.9159 10.0316C13.201 10.0809 11.8257 11.4857 11.8257 13.2125C11.8257 13.8857 12.0462 14.5022 12.3918 15.0239C12.7069 15.4997 13.6115 16.9534 13.6115 16.9534C15.3008 19.6255 16.3153 22.6681 16.5679 25.8193L16.7008 31.1793H20.9517L21.0845 25.8193C21.337 22.6681 22.3516 19.6254 24.0408 16.9533C24.0408 16.9534 24.9454 15.4997 25.2605 15.0239Z" fill="#FFCE00"/>
<path d="M31.4344 12.3465C31.7799 11.8248 32.0005 11.2083 32.0005 10.5352C32.0005 8.80833 30.6252 7.40354 28.9103 7.35422C28.9451 7.1427 28.9642 6.92581 28.9642 6.70452C28.9642 4.51516 27.1894 2.74036 25 2.74036C22.8106 2.74036 21.0358 4.51516 21.0358 6.70452C21.0358 6.9259 21.0549 7.1428 21.0897 7.35422C19.3748 7.40354 17.9995 8.80823 17.9995 10.5352C17.9995 11.2083 18.22 11.8248 18.5656 12.3465C18.8808 12.8223 19.7854 14.276 19.7854 14.276C21.4746 16.9482 22.4892 19.9907 22.7417 23.1419L22.8746 28.502H27.1255L27.2584 23.1419C27.5109 19.9907 28.5255 16.9481 30.2147 14.2759C30.2146 14.2761 31.1192 12.8224 31.4344 12.3465Z" fill="#FDBA12"/>
<path d="M28.9102 7.35435C28.945 7.14282 28.9641 6.92593 28.9641 6.70464C28.9641 4.51528 27.1893 2.74048 24.9999 2.74048C24.9863 2.74048 24.973 2.74136 24.9595 2.74146V28.5022H27.1253L27.2582 23.1421C27.5107 19.9909 28.5253 16.9483 30.2146 14.2761C30.2146 14.2761 31.1191 12.8224 31.4343 12.3466C31.7798 11.8249 32.0004 11.2084 32.0004 10.5353C32.0004 8.80835 30.6251 7.40366 28.9102 7.35435Z" fill="#FFA300"/>
<path d="M36.4151 9.11841L37.2499 11.6103C38.4353 15.1481 36.527 18.9767 32.9885 20.16L30.4972 20.9931L29.6622 18.5012C28.4769 14.9634 30.3852 11.1348 33.9237 9.95151L36.4151 9.11841Z" fill="#9AC90A"/>
<path d="M14.9383 12.9827L14.375 14.6637C13.5753 17.0503 14.8627 19.6332 17.2498 20.4313L18.9304 20.9933L19.4937 19.3123C20.2934 16.9256 19.006 14.3428 16.6189 13.5447L14.9383 12.9827Z" fill="#A8D812"/>
<path d="M31.0261 20.9352H28.0964V13.5891C28.0964 11.8819 26.7074 10.4928 25.0001 10.4928C23.2929 10.4928 21.9038 11.8818 21.9038 13.5891V20.9352H18.9741V13.5891C18.9741 10.2664 21.6773 7.56311 25.0001 7.56311C28.3228 7.56311 31.0261 10.2663 31.0261 13.5891V20.9352Z" fill="#E9EDF5"/>
<path d="M24.9999 7.56311C24.9863 7.56311 24.973 7.56409 24.9595 7.56418V10.4939C24.9729 10.4937 24.9863 10.4928 24.9999 10.4928C26.7071 10.4928 28.0962 11.8818 28.0962 13.5891V20.9352H31.0259V13.5891C31.0259 10.2663 28.3226 7.56311 24.9999 7.56311Z" fill="#CDD2E1"/>
<path d="M13.2427 17.5563H36.7569V44.0474H13.2427V17.5563Z" fill="white"/>
<path d="M24.9595 17.5563H36.757V44.0474H24.9595V17.5563Z" fill="#E9EDF5"/>
</g>
<defs>
<clipPath id="clip0_1_504">
<rect width="50" height="50" fill="white"/>
</clipPath>
</defs>
</svg>
