<svg width="50" height="50" viewBox="0 0 50 50" fill="none" xmlns="http://www.w3.org/2000/svg">
<g clip-path="url(#clip0_1_486)">
<path d="M50 25C50 25.7148 49.9697 26.4219 49.9111 27.1211C49.793 28.5332 49.5566 29.9121 49.2129 31.2471C46.8672 40.3652 39.5059 47.4717 30.2461 49.4482C29.5586 49.5947 28.8604 49.7139 28.1533 49.8018C28.0947 49.8096 28.0322 49.8164 27.9658 49.8242C27.582 49.8711 27.1953 49.9082 26.8057 49.9346C26.6904 49.9434 26.5752 49.9502 26.459 49.957C26.4521 49.958 26.4453 49.958 26.4385 49.959C26.3691 49.9629 26.2998 49.9668 26.2305 49.9697C26.1211 49.9756 26.0127 49.9795 25.9033 49.9834C25.7969 49.9873 25.6895 49.9902 25.583 49.9922C25.582 49.9932 25.5801 49.9932 25.5791 49.9922C25.5693 49.9932 25.5596 49.9941 25.5498 49.9932H25.5322C25.499 49.9941 25.4648 49.9951 25.4316 49.9951C25.2881 49.999 25.1445 50 25 50C24.2002 50 23.4092 49.9629 22.6289 49.8887C9.93457 48.6943 0 38.0068 0 25C0 11.1934 11.1934 0 25 0C37.6484 0 48.1045 9.39453 49.7686 21.5869C49.9072 22.6016 49.9854 23.6367 49.998 24.6865V24.7061C49.999 24.7646 49.999 24.8232 49.999 24.8818V24.9121C50 24.9414 50 24.9707 50 25Z" fill="#EE6055"/>
<path d="M50 25C50 25.7148 49.9697 26.4219 49.9111 27.1211C49.793 28.5332 49.5566 29.9121 49.2129 31.2471C46.8672 40.3652 39.5059 47.4717 30.2461 49.4482C29.5586 49.5947 28.8604 49.7139 28.1533 49.8018C28.0947 49.8096 28.0322 49.8164 27.9658 49.8242C27.582 49.8711 27.1953 49.9082 26.8057 49.9346C26.6904 49.9434 26.5752 49.9502 26.459 49.957C26.4521 49.958 26.4453 49.958 26.4385 49.959C26.3691 49.9629 26.2998 49.9668 26.2305 49.9697C26.1211 49.9756 26.0127 49.9795 25.9033 49.9834C25.7969 49.9873 25.6895 49.9902 25.583 49.9922C25.582 49.9932 25.5801 49.9932 25.5791 49.9922C25.5693 49.9932 25.5596 49.9941 25.5498 49.9932H25.5322C25.499 49.9941 25.4648 49.9951 25.4316 49.9951C25.2881 49.999 25.1445 50 25 50C24.2002 50 23.4092 49.9629 22.6289 49.8887C18.6074 45.8662 12.167 39.4258 12.167 39.4258L37.4355 9.13965C37.4355 9.13965 45.2168 16.9863 49.7686 21.5869C49.9072 22.6016 49.9854 23.6367 49.998 24.6865V24.7061C49.999 24.7646 49.999 24.8232 49.999 24.8818V24.9121C50 24.9414 50 24.9707 50 25Z" fill="#C23227"/>
<path d="M15.3086 9.13965H13.4925C12.112 9.13965 10.9927 10.49 10.989 12.1574H10.9888V12.1658V36.6435L14.4744 34.4854H34.472H37.051H37.4358V9.13965H15.3086Z" fill="#3BC3FF"/>
<path d="M25.9014 9.13965V34.4854H34.4718H37.0508H37.4356V9.13965H25.9014Z" fill="#09A1E8"/>
<path d="M10.989 12.1574H10.9888V12.1658V36.4301H11.3334L14.3672 34.5518V9.13965H13.4925C12.1121 9.13965 10.9928 10.4899 10.989 12.1574Z" fill="#09A1E8"/>
<path d="M14.7868 39.4285C13.3023 39.4285 12.0947 38.1695 12.0947 36.622C12.0947 35.0744 13.3024 33.8154 14.7868 33.8154H36.3117V39.4284L14.7868 39.4285Z" fill="#FFF3DC"/>
<path d="M25.9014 33.8154H36.3119V39.4284H25.9014V33.8154Z" fill="#EBD9BE"/>
<path d="M36.3118 38.3059H35.8943H14.9277C13.9963 38.3059 13.2386 37.5505 13.2386 36.622C13.2386 35.6935 13.9964 34.9381 14.9277 34.9381H35.8944H36.3119H37.4381V32.6929H14.9278C12.751 32.6929 10.9863 34.452 10.9863 36.622C10.9863 38.792 12.751 40.5511 14.9278 40.5511H37.4381V38.3059H36.3118Z" fill="#09A1E8"/>
<path d="M35.8944 38.3059H25.9014V40.5511H37.438V38.3059H36.3118H35.8944Z" fill="#0A92BC"/>
<path d="M25.9014 32.6929V34.9381H35.8944H36.3118H37.438V32.6929H25.9014Z" fill="#0A92BC"/>
<path d="M30.3112 16.159C29.8016 16.159 29.321 16.2819 28.8961 16.4985C28.5139 15.2064 27.3187 14.2633 25.9026 14.2633C24.4866 14.2633 23.2914 15.2064 22.9092 16.4985C22.4843 16.2819 22.0036 16.159 21.494 16.159C19.7698 16.159 18.3721 17.5568 18.3721 19.281C18.3721 20.9595 19.6968 22.3281 21.3577 22.3995L21.631 24.4541H22.182L22.5376 27.1283H29.2678L29.6233 24.4541H30.1744L30.4477 22.3995C32.1086 22.3281 33.4333 20.9595 33.4333 19.281C33.4333 17.5568 32.0354 16.159 30.3112 16.159Z" fill="#FFF3DC"/>
<path d="M30.3111 16.159C29.8015 16.159 29.3209 16.2819 28.896 16.4985C28.5138 15.2064 27.3186 14.2633 25.9025 14.2633C25.9022 14.2633 25.9018 14.2633 25.9014 14.2633V27.1283H29.2677L29.6232 24.4541H30.1743L30.4476 22.3995C32.1085 22.3281 33.4332 20.9595 33.4332 19.281C33.4332 17.5568 32.0354 16.159 30.3111 16.159Z" fill="#EBD9BE"/>
<path d="M21.6309 24.4542L22.0451 27.5693H29.7602L30.1744 24.4542H21.6309Z" fill="#FFC43A"/>
<path d="M25.9014 24.4542V27.5693H29.7601L30.1743 24.4542H25.9014Z" fill="#FDA632"/>
<path d="M22.2016 42.7506L20.0073 41.4488L17.813 42.7506V36.1677H22.2016V42.7506Z" fill="#225779"/>
</g>
<defs>
<clipPath id="clip0_1_486">
<rect width="50" height="50" fill="white"/>
</clipPath>
</defs>
</svg>
