<svg width="16" height="16" viewBox="0 0 16 16" fill="none" xmlns="http://www.w3.org/2000/svg">
<path d="M10.2669 10.42C9.26912 10.7401 8.27931 10.7478 7.44311 10.4421C6.60691 10.1363 5.96849 9.53321 5.62182 8.7215C5.27514 7.90979 5.23852 6.93236 5.51733 5.93305C5.79615 4.93375 6.37569 3.96536 7.17064 3.1704C7.9656 2.37544 8.93399 1.79591 9.93329 1.51709C10.9326 1.23827 11.91 1.2749 12.7217 1.62157C13.5335 1.96825 14.1366 2.60666 14.4423 3.44287C14.7481 4.27907 14.7403 5.26888 14.4202 6.26664C13.957 6.00241 13.3697 5.93669 12.7572 6.08052C12.1446 6.22435 11.5441 6.56897 11.0566 7.0564C10.5692 7.54383 10.2246 8.14434 10.0808 8.75692C9.93693 9.3695 10.0027 9.95678 10.2669 10.42Z" stroke="#AD764E" stroke-width="1.5" stroke-linecap="round" stroke-linejoin="round"/>
<path d="M5.52651 8.47339L3.79317 10.2067C3.58148 10.0901 3.34696 10.0209 3.10586 10.0039C2.86476 9.98699 2.62286 10.0227 2.39693 10.1085C2.171 10.1944 1.96644 10.3283 1.79744 10.5011C1.62844 10.6739 1.49904 10.8814 1.41822 11.1092C1.3374 11.3369 1.30708 11.5796 1.32937 11.8202C1.35166 12.0609 1.42603 12.2938 1.54732 12.5029C1.66861 12.7119 1.83391 12.8921 2.03177 13.0309C2.22963 13.1697 2.45532 13.2638 2.69317 13.3067C2.73985 13.5415 2.83654 13.7634 2.97667 13.9575C3.11681 14.1515 3.29709 14.3131 3.50526 14.4313C3.71344 14.5494 3.94461 14.6213 4.18306 14.6421C4.42152 14.6629 4.66165 14.6321 4.88713 14.5518C5.11261 14.4714 5.31814 14.3435 5.48974 14.1766C5.66135 14.0098 5.795 13.8079 5.8816 13.5848C5.9682 13.3616 6.00573 13.1224 5.99162 12.8835C5.97751 12.6446 5.9121 12.4115 5.79984 12.2001L7.52651 10.4734" stroke="#AD764E" stroke-width="1.5" stroke-linecap="round" stroke-linejoin="round"/>
</svg>
