<svg width="16" height="16" viewBox="0 0 16 16" fill="none" xmlns="http://www.w3.org/2000/svg">
<path d="M3.41084 2.736C3.40113 2.64314 3.41103 2.54928 3.43991 2.46049C3.46878 2.37171 3.51598 2.28998 3.57845 2.22059C3.64092 2.15121 3.71727 2.09572 3.80255 2.05772C3.88783 2.01972 3.98014 2.00005 4.07351 2H11.9268C12.0203 2.00004 12.1126 2.01972 12.198 2.05776C12.2833 2.0958 12.3597 2.15136 12.4222 2.22081C12.4846 2.29027 12.5318 2.37209 12.5607 2.46096C12.5895 2.54982 12.5993 2.64376 12.5895 2.73667L11.4602 13.4733C11.4256 13.801 11.2709 14.1043 11.0259 14.3246C10.7809 14.545 10.463 14.6668 10.1335 14.6667H5.86684C5.53619 14.6685 5.21665 14.5474 4.97027 14.3269C4.72388 14.1064 4.56822 13.8022 4.53351 13.4733L3.41084 2.736Z" stroke="#8CAEFF" stroke-width="1.5" stroke-linecap="round" stroke-linejoin="round"/>
<path d="M4 7.99992C4.57699 7.56718 5.27877 7.33325 6 7.33325C6.72123 7.33325 7.42301 7.56718 8 7.99992C8.57699 8.43266 9.27877 8.66659 10 8.66659C10.7212 8.66659 11.423 8.43266 12 7.99992" stroke="#8CAEFF" stroke-width="1.5" stroke-linecap="round" stroke-linejoin="round"/>
</svg>
